<svg width="169" height="169" viewBox="0 0 169 169" fill="none" xmlns="http://www.w3.org/2000/svg">
<path d="M84.5 169C131.168 169 169 131.168 169 84.5C169 37.8319 131.168 0 84.5 0C37.8319 0 0 37.8319 0 84.5C0 131.168 37.8319 169 84.5 169Z" fill="#FF2E00"/>
<path d="M123.757 53.1818C123.759 59.2123 122.02 65.115 118.75 70.1818C115.48 75.2487 110.817 79.2642 105.322 81.7467C107.937 75.9438 108.724 69.4824 107.579 63.2215C106.433 56.9604 103.409 51.1963 98.9082 46.6956C94.4074 42.1949 88.6434 39.1707 82.3823 38.025C76.1212 36.8795 69.6598 37.6668 63.8569 40.2822C66.8037 33.7481 71.9015 28.4218 78.3003 25.1916C84.6989 21.9614 92.0116 21.0225 99.0188 22.5316C106.026 24.0404 112.304 27.9063 116.806 33.4838C121.308 39.0615 123.761 46.0141 123.757 53.1818Z" fill="#FAF7EF"/>
<path d="M63.857 40.2822C62.0245 44.3354 61.0799 48.7336 61.0864 53.1819V131.52C61.0864 135.676 59.4357 139.661 56.4975 142.599C53.5592 145.537 49.574 147.188 45.4187 147.188V68.8496C45.4159 63.3479 46.8624 57.9425 49.6129 53.1778C52.3634 48.4131 56.3208 44.4569 61.0864 41.708C61.9849 41.1857 62.9097 40.7098 63.857 40.2822Z" fill="#FAF7EF"/>
<path d="M105.319 81.7494C102.836 87.245 98.821 91.9077 93.7541 95.1778C88.6873 98.448 82.7846 100.187 76.7542 100.185V80.3236C81.0622 82.8065 85.8986 84.2305 90.8648 84.4784C95.8309 84.7262 100.785 83.7909 105.319 81.7494Z" fill="#FAF7EF"/>
</svg>
