<svg width="724" height="181" viewBox="0 0 724 181" fill="none" xmlns="http://www.w3.org/2000/svg">
<path d="M84.5 174C131.168 174 169 136.168 169 89.5C169 42.8319 131.168 5 84.5 5C37.8319 5 0 42.8319 0 89.5C0 136.168 37.8319 174 84.5 174Z" fill="#FF2E00"/>
<path d="M123.757 58.1818C123.759 64.2123 122.02 70.115 118.75 75.1818C115.48 80.2487 110.817 84.2642 105.322 86.7467C107.937 80.9438 108.724 74.4824 107.579 68.2215C106.433 61.9604 103.409 56.1963 98.9082 51.6956C94.4074 47.1949 88.6434 44.1707 82.3823 43.025C76.1212 41.8795 69.6598 42.6668 63.8569 45.2822C66.8037 38.7481 71.9015 33.4218 78.3003 30.1916C84.6989 26.9614 92.0116 26.0225 99.0188 27.5316C106.026 29.0404 112.304 32.9063 116.806 38.4838C121.308 44.0615 123.761 51.0141 123.757 58.1818Z" fill="#FAF7EF"/>
<path d="M63.857 45.2822C62.0245 49.3354 61.0799 53.7336 61.0864 58.1819V136.52C61.0864 140.676 59.4357 144.661 56.4975 147.599C53.5592 150.537 49.574 152.188 45.4187 152.188V73.8496C45.4159 68.3479 46.8624 62.9425 49.6129 58.1778C52.3634 53.4131 56.3208 49.4569 61.0864 46.708C61.9849 46.1857 62.9097 45.7098 63.857 45.2822Z" fill="#FAF7EF"/>
<path d="M105.319 86.7494C102.836 92.245 98.821 96.9077 93.7541 100.178C88.6873 103.448 82.7846 105.187 76.7542 105.185V85.3236C81.0622 87.8065 85.8986 89.2305 90.8648 89.4784C95.8309 89.7262 100.785 88.7909 105.319 86.7494Z" fill="#FAF7EF"/>
<path d="M212.391 122.125C212.391 126.156 212.484 128.781 212.672 130H195.164V29.4531H212.391V62.0078C218.438 57.4141 224.672 55.1172 231.094 55.1172C238.969 55.1172 245.297 57.7188 250.078 62.9219C254.766 68.125 257.109 75.0156 257.109 83.5938V111.578C257.109 119.5 257.227 124.258 257.461 125.852C257.695 127.445 258 128.477 258.375 128.945C258.797 129.414 259.148 129.836 259.43 130.211L259.289 130.492C255.492 130.164 252.727 130 250.992 130H246C244.453 130 242.414 130.07 239.883 130.211V89.5C239.883 83.0312 238.453 78.25 235.594 75.1562C233.438 72.8125 230.508 71.6406 226.805 71.6406C221.32 71.6406 216.516 74.8047 212.391 81.1328V122.125ZM325.805 125.641C319.148 129.25 313.125 131.055 307.734 131.055C302.344 131.055 297.727 130.562 293.883 129.578C290.039 128.547 286.781 127.047 284.109 125.078C278.672 121.094 275.953 115.328 275.953 107.781C275.953 101.031 279.281 95.4062 285.938 90.9062C293.156 86.0312 302.953 83.5938 315.328 83.5938L318.141 83.6641C318.703 83.7109 319.336 83.7578 320.039 83.8047C320.742 83.8047 321.375 83.8516 321.938 83.9453C321.562 76.4453 318.328 72.0625 312.234 70.7969C310.219 70.375 308.062 70.1641 305.766 70.1641C303.516 70.1641 301.289 70.375 299.086 70.7969C296.93 71.1719 294.82 71.6875 292.758 72.3438C288.211 73.7969 284.953 75.4609 282.984 77.3359L282.773 77.1953L280.664 61.6562C288.961 57.2969 298.031 55.1172 307.875 55.1172C323.156 55.1172 332.93 60.625 337.195 71.6406C338.555 75.1562 339.234 79.1172 339.234 83.5234V108.977C339.234 114.414 341.156 118.117 345 120.086L332.273 131.758C329.602 130.352 327.445 128.312 325.805 125.641ZM322.008 96.6016C320.742 96.3672 319.43 96.25 318.07 96.25H315.258C304.898 96.25 298.312 98.5469 295.5 103.141C294.656 104.5 294.234 105.93 294.234 107.43C294.234 108.93 294.492 110.266 295.008 111.438C295.57 112.562 296.484 113.5 297.75 114.25C300.188 115.656 303.797 116.359 308.578 116.359C313.406 116.359 317.906 115.211 322.078 112.914C322.031 112.398 322.008 111.859 322.008 111.297V96.6016ZM377.555 122.125C377.555 126.156 377.648 128.781 377.836 130H359.977V25.2344H377.555V122.125ZM416.719 110.453C414.984 112.75 414.117 114.578 414.117 115.938C414.117 117.25 414.328 118.281 414.75 119.031C415.172 119.734 416.086 120.414 417.492 121.07C420.586 122.523 425.672 123.812 432.75 124.938C439.828 126.016 445.359 127.375 449.344 129.016C453.375 130.656 456.633 132.672 459.117 135.062C463.758 139.609 466.078 146.055 466.078 154.398C466.078 162.742 463.148 169.141 457.289 173.594C451.43 178.094 442.734 180.344 431.203 180.344C419.578 180.344 410.203 177.812 403.078 172.75C395.953 167.688 392.297 160.961 392.109 152.57C391.828 142.82 395.648 135.766 403.57 131.406C401.414 129.625 399.961 127.539 399.211 125.148C398.508 122.711 398.156 119.945 398.156 116.852C398.156 111.648 400.43 107.242 404.977 103.633C399.68 98.6172 397.031 92.3828 397.031 84.9297C397.031 76.5859 400.031 69.6016 406.031 63.9766C412.359 58.0703 420.562 55.1172 430.641 55.1172C435.938 55.1172 440.906 56.1016 445.547 58.0703C451.641 55.4922 456.117 53.2422 458.977 51.3203C461.836 49.3516 463.664 47.9219 464.461 47.0312L464.883 47.1016C465.305 48.2266 465.797 49.8203 466.359 51.8828L467.625 56.9453C468.75 61.1172 469.43 63.9766 469.664 65.5234C467.602 67.7734 463.969 69.3672 458.766 70.3047C460.781 74.1953 461.789 78.3203 461.789 82.6797C461.789 87.0391 461.039 91 459.539 94.5625C458.039 98.0781 455.906 101.172 453.141 103.844C447 109.609 439.172 112.492 429.656 112.492C425.016 112.492 420.703 111.812 416.719 110.453ZM414.891 78.8125C414.234 80.5 413.906 82.2109 413.906 83.9453C413.906 85.6797 414.258 87.3438 414.961 88.9375C415.711 90.5312 416.789 91.9609 418.195 93.2266C421.336 96.0391 425.438 97.4453 430.5 97.4453C434.344 97.4453 437.672 96.1562 440.484 93.5781C443.438 90.7656 444.914 87.3906 444.914 83.4531C444.914 79.4688 443.578 76.2578 440.906 73.8203C438.234 71.3828 434.555 70.1641 429.867 70.1641C422.133 70.1641 417.141 73.0469 414.891 78.8125ZM432.117 165.438C443.648 165.438 449.414 161.406 449.414 153.344C449.414 149.5 447.539 146.406 443.789 144.062C439.57 141.391 432.328 139.305 422.062 137.805L418.406 137.172C415.312 138.812 413.039 140.922 411.586 143.5C410.133 146.078 409.406 148.516 409.406 150.812C409.453 153.156 410.016 155.172 411.094 156.859C412.172 158.547 413.672 160.023 415.594 161.289C419.859 164.055 425.367 165.438 432.117 165.438ZM525.352 123.602C519.352 128.57 512.812 131.055 505.734 131.055C498.141 131.055 492.188 128.5 487.875 123.391C483.75 118.422 481.688 111.602 481.688 102.93V75.0156C481.688 65.6406 481.477 60.2734 481.055 58.9141C480.68 57.5078 480.398 56.6172 480.211 56.2422C482.367 56.4297 484.617 56.5234 486.961 56.5234H492.797C494.344 56.5234 496.383 56.4531 498.914 56.3125V97.0234C498.914 106.68 501.539 112.281 506.789 113.828C508.383 114.297 510.117 114.531 511.992 114.531C517.523 114.531 521.977 112.516 525.352 108.484V56.5234H542.789V121C542.789 125.125 542.977 128.125 543.352 130H525.352V123.602ZM583.781 121C583.781 125.125 583.969 128.125 584.344 130H566.695V56.5234H583.781V62.7812C589.969 57.6719 596.578 55.1172 603.609 55.1172C611.297 55.1172 617.438 57.7422 622.031 62.9922C626.625 68.1953 628.922 75.0625 628.922 83.5938V111.578C628.922 119.5 629.039 124.258 629.273 125.852C629.508 127.445 629.812 128.477 630.188 128.945C630.609 129.414 630.961 129.836 631.242 130.211L631.102 130.492C627.305 130.164 624.539 130 622.805 130H617.883C616.383 130 614.367 130.07 611.836 130.211V91.8906C611.836 78.1562 607.664 71.2891 599.32 71.2891C593.133 71.2891 587.953 74.4766 583.781 80.8516V121ZM698.039 125.641C691.383 129.25 685.359 131.055 679.969 131.055C674.578 131.055 669.961 130.562 666.117 129.578C662.273 128.547 659.016 127.047 656.344 125.078C650.906 121.094 648.188 115.328 648.188 107.781C648.188 101.031 651.516 95.4062 658.172 90.9062C665.391 86.0312 675.188 83.5938 687.562 83.5938L690.375 83.6641C690.938 83.7109 691.57 83.7578 692.273 83.8047C692.977 83.8047 693.609 83.8516 694.172 83.9453C693.797 76.4453 690.562 72.0625 684.469 70.7969C682.453 70.375 680.297 70.1641 678 70.1641C675.75 70.1641 673.523 70.375 671.32 70.7969C669.164 71.1719 667.055 71.6875 664.992 72.3438C660.445 73.7969 657.188 75.4609 655.219 77.3359L655.008 77.1953L652.898 61.6562C661.195 57.2969 670.266 55.1172 680.109 55.1172C695.391 55.1172 705.164 60.625 709.43 71.6406C710.789 75.1562 711.469 79.1172 711.469 83.5234V108.977C711.469 114.414 713.391 118.117 717.234 120.086L704.508 131.758C701.836 130.352 699.68 128.312 698.039 125.641ZM694.242 96.6016C692.977 96.3672 691.664 96.25 690.305 96.25H687.492C677.133 96.25 670.547 98.5469 667.734 103.141C666.891 104.5 666.469 105.93 666.469 107.43C666.469 108.93 666.727 110.266 667.242 111.438C667.805 112.562 668.719 113.5 669.984 114.25C672.422 115.656 676.031 116.359 680.812 116.359C685.641 116.359 690.141 115.211 694.312 112.914C694.266 112.398 694.242 111.859 694.242 111.297V96.6016Z" fill="#FF2E00"/>
</svg>
